<?xml version="1.0" encoding="utf-8"?>
<!-- Generator: Adobe Illustrator 24.3.0, SVG Export Plug-In . SVG Version: 6.00 Build 0)  -->
<svg version="1.1" id="Layer_1" xmlns="http://www.w3.org/2000/svg" xmlns:xlink="http://www.w3.org/1999/xlink" x="0px" y="0px"
	 viewBox="0 0 237.441 217.702" enable-background="new 0 0 237.441 217.702" xml:space="preserve">
<g>
	<path d="M119.795,44.1072c1.4625,2.5515,3.0896,5.7949,4.8563,9.939c1.4194,3.3301,2.6812,6.6724,3.7529,9.7241
		c-4.6896-0.9619-9.6321-1.9058-13.5195-2.4826c-4.5687,6.0775-11.8366,10.0159-20.0076,10.0159
		c-9.483,0-17.7509-5.3036-21.993-13.1007c-0.4364-0.0739-0.882-0.121-1.3394-0.121c-2.9013,0-7.2163,1.0944-11.2965,6.308
		c-1.7203,2.1983-2.7676,4.317-2.96,4.7195c-0.2766,0.5782-0.4824,1.1877-0.6135,1.8152l-8.1769,39.1926
		c-0.5345,2.562,0.2259,5.2161,2.0196,7.1143h21.7714c3.1921-0.4734,6.6997-0.9615,10.3001-1.4061
		c12.2033-1.5071,19.5018-1.796,23.7922-1.6907c0.5051-1.5383,1.9379-2.6594,3.6428-2.6594h14.8536
		c0.4573-1.5413,0.4621-3.2326-0.1019-4.8684c-0.8658-2.5105-3.1201-5.8254-8.9439-7.3598
		c-2.3939-0.6307-5.3757-0.9827-9.116-1.0757c-5.5303-0.1373-12.8926,0.3006-21.8867,1.3022
		c-6.5936,0.7344-13.0676,1.6564-18.3027,2.4681L70.47,83.0387l2.2954,0.2592L69.4539,99.171
		c5.3496-0.7944,10.4229-1.46,15.1201-1.9829c7.9873-0.8901,14.7441-1.3413,20.0811-1.3413c0.7324,0,1.4385,0.0088,2.1172,0.0254
		c2.2604,0.056,4.2592,0.2082,6.0455,0.454l2.973-18.693c6.0062,1.0676,14.8678,2.9141,22.5715,4.6684
		c0.5898,0.1343,1.1851,0.1997,1.7764,0.1997c2.1416,0,4.2241-0.8613,5.748-2.436c1.9448-2.0093,2.6997-4.8882,1.9902-7.5933
		c-0.1421-0.5415-3.54-13.4019-9.1099-26.0938c-3.2935-7.5039-13.3213-30.3374-29.876-27.2456
		c-2.3134,0.432-4.2018,1.8242-5.3461,3.6829C112.4293,26.1075,118.9457,34.3081,119.795,44.1072z"/>
	<path d="M66.6542,191.224l-29.25,8.9995v3.6838c-1.874,0.9244-3.1664,2.8486-3.1664,5.0795c0,3.1296,2.537,5.6667,5.6667,5.6667
		c3.1296,0,5.6666-2.537,5.6666-5.6667c0-2.2262-1.2869-4.1471-3.1545-5.0737l24.2377-7.4578v7.452
		c-1.874,0.9244-3.1664,2.8486-3.1664,5.0795c0,3.1296,2.537,5.6667,5.6667,5.6667c3.1296,0,5.6666-2.537,5.6666-5.6667
		c0-2.2311-1.2926-4.1555-3.1669-5.0797v-7.4518l24.2379,7.4578c-1.8675,0.9267-3.1544,2.8475-3.1544,5.0737
		c0,3.1296,2.537,5.6667,5.6667,5.6667c3.1296,0,5.6666-2.537,5.6666-5.6667c0-2.2311-1.2926-4.1555-3.1669-5.0797v-3.6836
		l-29.25-8.9995v-2.3204h-5V191.224z"/>
	<path d="M114.5849,208.6453c1.4761,5.4609,6.4194,9.0566,11.8184,9.0566c1.0576,0,2.1338-0.1382,3.2036-0.4272
		c6.5312-1.7651,10.3945-8.4907,8.6294-15.022l-3.6079-13.3492h-25.3791L114.5849,208.6453z"/>
	<path d="M145.7079,208.6453c1.4761,5.4609,6.4194,9.0566,11.8184,9.0566c1.0576,0,2.1338-0.1382,3.2036-0.4272
		c6.5312-1.7651,10.3945-8.4907,8.6294-15.022l-3.6079-13.3492h-25.3791L145.7079,208.6453z"/>
	<path d="M46.2469,109.647l8.1758-39.1919c0.1689-0.8066,0.4346-1.5933,0.79-2.3379c0.21-0.4395,1.3535-2.7539,3.2236-5.1445
		c3.7327-4.7695,7.7163-6.5115,10.9089-7.0148c-1.3971-1.8521-3.6077-3.0302-6.0637-3.0302H21.119
		c-4.6686,0-8.2332,4.1706-7.506,8.7822l8.7545,55.5216h25.2618C46.2181,114.9984,45.6945,112.2921,46.2469,109.647z"/>
	<path d="M106.3558,116.436c-0.0067-0.0002-0.0139-0.0002-0.0205-0.0004v0.796h0.3629
		C106.5546,116.9821,106.441,116.7165,106.3558,116.436z"/>
	<path d="M94.8773,69.0036c12.5486,0,22.719-10.1714,22.719-22.7191c0-12.5477-10.1703-22.719-22.719-22.719
		c-12.5468,0-22.7191,10.1713-22.7191,22.719C72.1582,58.8322,82.3305,69.0036,94.8773,69.0036z M109.643,50.8317
		c0,1.7633-1.4294,3.1927-3.1926,3.1927s-3.1927-1.4294-3.1927-3.1927c0-1.7632,1.4294-3.1926,3.1927-3.1926
		S109.643,49.0685,109.643,50.8317z M91.8082,47.6391c1.7632,0,3.1927,1.4294,3.1927,3.1926c0,1.7633-1.4294,3.1927-3.1927,3.1927
		s-3.1926-1.4294-3.1926-3.1927C88.6155,49.0685,90.0449,47.6391,91.8082,47.6391z"/>
	<polygon points="7.3335,134.0648 12.75,134.0648 12.75,214.3596 19.25,214.3596 19.25,185.9035 218.191,185.9035 218.191,214.3596 
		224.691,214.3596 224.691,134.0648 230.108,134.0648 230.108,125.2315 237.441,125.2315 237.441,120.2315 0,120.2315 0,125.2315 
		7.3335,125.2315 	"/>
	<path d="M110.0235,116.8767h36.533h44.39h12.9407c0.9125,0,1.6964-0.6481,1.8678-1.5443l8.6738-45.3273
		c0.2244-1.1724-0.6742-2.2592-1.8678-2.2592h-57.3307c-0.9124,0-1.6963,0.6481-1.8678,1.5443l-8.5125,44.4848h-34.8264
		c-0.853,0-1.5508,0.6978-1.5508,1.5508C108.4727,116.1788,109.1705,116.8767,110.0235,116.8767z M179.9446,83.296
		c0.2344-1.3295,1.5023-2.4073,2.8318-2.4073s2.2173,1.0778,1.9828,2.4073s-1.5023,2.4073-2.8318,2.4073
		S179.7102,84.6256,179.9446,83.296z"/>
	<path d="M102.2568,11.945c-2.6194,1.353-3.4788,4.1813-3.5142,4.301c-0.1557,0.528,0.1454,1.0806,0.673,1.2387
		c0.0359,0.011,0.0721,0.0196,0.1084,0.0262c0.4933,0.0898,0.9867-0.2045,1.1359-0.6955c0.0063-0.0212,0.6718-2.1512,2.5302-3.1014
		c1.1898-0.6088,2.6559-0.6223,4.356-0.0378c0.5214,0.1783,1.0911-0.0992,1.2705-0.6214c0.1793-0.5227-0.0992-1.0911-0.6216-1.2705
		C105.9505,11.0144,103.953,11.0681,102.2568,11.945z"/>
	<path d="M95.5961,14.5039c0.0522,0.0184,0.105,0.0325,0.1579,0.0422c0.4724,0.086,0.9517-0.1801,1.1197-0.6464
		c0.012-0.0335,1.2438-3.3698,4.3639-4.7935c2.0434-0.9328,4.4811-0.8652,7.2473,0.2061c0.5168,0.1968,1.0942-0.0579,1.2934-0.5725
		c0.1992-0.5151-0.0569-1.0938-0.5721-1.2933c-3.2975-1.2738-6.2651-1.3246-8.8217-0.1493
		c-3.8911,1.7886-5.3357,5.764-5.3954,5.9328C94.8051,13.7494,95.077,14.3186,95.5961,14.5039z"/>
	<path d="M49.0554,10.9021l4.4124,11.2695l2.8954-0.917L53.4852,9.4991l-1.2263-3.8719c-0.3425-1.0815-1.1543-1.7068-2.8292-1.1764
		c-1.6393,0.5192-1.9324,1.5318-1.6226,2.5098L49.0554,10.9021z"/>
	<path d="M55.3787,23.5997c-1.5343,0.4859-2.206,2.0042-1.7974,3.2944c0.4423,1.3966,1.7138,2.2604,3.4937,1.6968
		c1.6393-0.5192,2.206-2.0042,1.7749-3.3654C58.4081,23.8303,57.0891,23.0581,55.3787,23.5997z"/>
	<path d="M66.576,20.0535c-1.5358,0.4864-2.228,1.9347-1.7974,3.2944c0.4423,1.3966,1.7366,2.2142,3.447,1.6725
		c1.6393-0.5192,2.1953-2.0383,1.7862-3.3299C69.559,20.2614,68.2494,19.5236,66.576,20.0535z"/>
	<path d="M61.537,8.0235L60.8964,6.001c-0.1547-0.4883-0.0686-0.8232,0.223-0.9921c0.4097-0.2844,0.9675-0.461,1.5608-0.6489
		c1.3597-0.4306,2.4426-0.0443,2.8849,1.3524c0.5745,1.8139-0.2609,2.6922-1.4078,4.283c-1.6057,2.1983-2.3327,3.5421-1.1253,6.383
		l1.0397,2.4349l3.6633-1.1602l-0.5304-1.6749c-0.7071-2.2326-0.4089-2.8643,1.2207-4.9921
		c1.9826-2.5863,2.4421-4.6511,1.6137-7.267c-0.7624-2.4072-3.3075-4.748-8.0524-3.2452c-2.4072,0.7623-4.7216,2.3011-5.9423,3.4171
		l1.6021,5.0585L61.537,8.0235z"/>
</g>
</svg>
